{"title":"Beautiful.Youth.[Hermosa.Juventud].2014.DVDRip.XviD.HORiZON-ArtS","uid":11549638,"size":1574218827,"categoryP":"video","categoryS":"movies","magnet":"?xt=urn:btih:d66dfae9b8c7274412ae6ebcb0dd2fbc95ce6ffd&amp;dn=Beautiful.Youth.%5BHermosa.Juventud%5D.2014.DVDRip.XviD.HORiZON-ArtS&amp;tr=udp%3A%2F%2Ftracker.openbittorrent.com%3A80&amp;tr=udp%3A%2F%2Fopen.demonii.com%3A1337&amp;tr=udp%3A%2F%2Ftracker.coppersurfer.tk%3A6969&amp;tr=udp%3A%2F%2Fexodus.desync.com%3A6969","seeders":6,"leechers":1,"uploader":"lletaif","files":-1,"time":1416766426,"description":"Title:\nBeautiful Youth Aka Hermosa Juventud\n\n\nCountry:\nSpain, 2014\n\n\n\nLanguage:\nIMDB: &lt;a href=&quot;\nhttp://www.imdb.com/title/tt3314376/?ref_=fn_al_tt_1&quot; rel=&quot;nofollow&quot; target=&quot;_NEW&quot;&gt;\nhttp://www.imdb.com/title/tt3314376/?ref_=fn_al_tt_1&lt;/a&gt;\n\n\nPlot:\nNatalia and Carlos, both aged 20, are in love and struggling to survive in today's Spain. Their limited resources prevent them from getting ahead as they'd like to. They have no great ambitions because they have no great hopes. To earn some money, they decide to shoot an amateur porno film. The birth of their daughter Julia is the main catalyst for the changes they make. \n\n\nTrivia:\nOfficial Selection Cannes Film Festival 2014\n\n\n\nMedia Info:\n\nGeneral\nComplete name                            : Beautiful.Youth.[Hermosa.Juventud].2014.DVDRip.XviD.HORiZON-ArtSubs.avi\nFormat                                   : AVI\nFormat/Info                              : Audio Video Interleave\nFile size                                : 1.46 GiB\nDuration                                 : 1h 38mn\nOverall bit rate                         : 2 126 Kbps\nWriting application                      : VirtualDubMod 1.5.10.3 | www.virtualdub-fr.org || (build 2550/release)\nWriting library                          : VirtualDubMod build 2550/release\n\nVideo\nID                                       : 0\nFormat                                   : MPEG-4 Visual\nFormat profile                           : Advanced Simple@L5\nFormat settings, BVOP                    : 1\nFormat settings, QPel                    : No\nFormat settings, GMC                     : No warppoints\nFormat settings, Matrix                  : Default (MPEG)\nCodec ID                                 : XVID\nCodec ID/Hint                            : XviD\nDuration                                 : 1h 38mn\nBit rate                                 : 1 668 Kbps\nWidth                                    : 720 pixels\nHeight                                   : 304 pixels\nDisplay aspect ratio                     : 2.35:1\nFrame rate                               : 25.000 fps\nColor space                              : YUV\nChroma subsampling                       : 4:2:0\nBit depth                                : 8 bits\nScan type                                : Progressive\nCompression mode                         : Lossy\nBits/(Pixel*Frame)                       : 0.305\nStream size                              : 1.14 GiB (78%)\nWriting library                          : XviD 1.2.1 (UTC 2008-12-04)\n\nAudio\nID                                       : 1\nFormat                                   : AC-3\nFormat/Info                              : Audio Coding 3\nMode extension                           : CM (complete main)\nFormat settings, Endianness              : Big\nCodec ID                                 : 2000\nDuration                                 : 1h 38mn\nBit rate mode                            : Constant\nBit rate                                 : 448 Kbps\nChannel(s)                               : 6 channels\nChannel positions                        : Front: L C R, Side: L R, LFE\nSampling rate                            : 48.0 KHz\nBit depth                                : 16 bits\nCompression mode                         : Lossy\nStream size                              : 315 MiB (21%)\nAlignment                                : Split accross interleaves\nInterleave, duration                     : 40 ms (1.00 video frame)\nInterleave, preload duration             : 500 ms","torrent":{"xt":"urn:btih:d66dfae9b8c7274412ae6ebcb0dd2fbc95ce6ffd","amp;dn":"Beautiful.Youth.%5BHermosa.Juventud%5D.2014.DVDRip.XviD.HORiZON-ArtS","amp;tr":["udp%3A%2F%2Ftracker.openbittorrent.com%3A80","udp%3A%2F%2Fopen.demonii.com%3A1337","udp%3A%2F%2Ftracker.coppersurfer.tk%3A6969","udp%3A%2F%2Fexodus.desync.com%3A6969"],"infoHash":"d66dfae9b8c7274412ae6ebcb0dd2fbc95ce6ffd","infoHashBuffer":{"type":"Buffer","data":[214,109,250,233,184,199,39,68,18,174,110,188,176,221,47,188,149,206,111,253]},"announce":[],"urlList":[]}}